<svg width="2114" height="426" viewBox="0 0 2114 426" fill="none" xmlns="http://www.w3.org/2000/svg">
<g filter="url(#filter0_gf_33_1111)">
<path d="M205.011 325.5C183.411 325.5 164.761 320.8 149.061 311.4C133.461 302 121.411 288.85 112.911 271.95C104.511 255.05 100.311 235.4 100.311 213C100.311 190.6 104.511 170.95 112.911 154.05C121.411 137.15 133.461 124 149.061 114.6C164.761 105.2 183.411 100.5 205.011 100.5C226.611 100.5 245.211 105.2 260.811 114.6C276.511 124 288.561 137.15 296.961 154.05C305.461 170.95 309.711 190.6 309.711 213C309.711 235.4 305.461 255.05 296.961 271.95C288.561 288.85 276.511 302 260.811 311.4C245.211 320.8 226.611 325.5 205.011 325.5ZM205.011 287.1C218.711 287.3 230.111 284.35 239.211 278.25C248.311 272.15 255.111 263.5 259.611 252.3C264.211 241.1 266.511 228 266.511 213C266.511 198 264.211 185 259.611 174C255.111 163 248.311 154.45 239.211 148.35C230.111 142.25 218.711 139.1 205.011 138.9C191.311 138.7 179.911 141.65 170.811 147.75C161.711 153.85 154.861 162.5 150.261 173.7C145.761 184.9 143.511 198 143.511 213C143.511 228 145.761 241 150.261 252C154.861 263 161.711 271.55 170.811 277.65C179.911 283.75 191.311 286.9 205.011 287.1ZM415.254 325.5C399.254 325.5 384.804 322.7 371.904 317.1C359.104 311.4 348.554 303.3 340.254 292.8C332.054 282.2 326.854 269.6 324.654 255L367.254 248.7C370.254 261.1 376.454 270.65 385.854 277.35C395.254 284.05 405.954 287.4 417.954 287.4C424.654 287.4 431.154 286.35 437.454 284.25C443.754 282.15 448.904 279.05 452.904 274.95C457.004 270.85 459.054 265.8 459.054 259.8C459.054 257.6 458.704 255.5 458.004 253.5C457.404 251.4 456.354 249.45 454.854 247.65C453.354 245.85 451.204 244.15 448.404 242.55C445.704 240.95 442.254 239.5 438.054 238.2L381.954 221.7C377.754 220.5 372.854 218.8 367.254 216.6C361.754 214.4 356.404 211.25 351.204 207.15C346.004 203.05 341.654 197.65 338.154 190.95C334.754 184.15 333.054 175.6 333.054 165.3C333.054 150.8 336.704 138.75 344.004 129.15C351.304 119.55 361.054 112.4 373.254 107.7C385.454 103 398.954 100.7 413.754 100.8C428.654 101 441.954 103.55 453.654 108.45C465.354 113.35 475.154 120.5 483.054 129.9C490.954 139.2 496.654 150.6 500.154 164.1L456.054 171.6C454.454 164.6 451.504 158.7 447.204 153.9C442.904 149.1 437.754 145.45 431.754 142.95C425.854 140.45 419.654 139.1 413.154 138.9C406.754 138.7 400.704 139.6 395.004 141.6C389.404 143.5 384.804 146.3 381.204 150C377.704 153.7 375.954 158.1 375.954 163.2C375.954 167.9 377.404 171.75 380.304 174.75C383.204 177.65 386.854 180 391.254 181.8C395.654 183.6 400.154 185.1 404.754 186.3L442.254 196.5C447.854 198 454.054 200 460.854 202.5C467.654 204.9 474.154 208.3 480.354 212.7C486.654 217 491.804 222.7 495.804 229.8C499.904 236.9 501.954 245.9 501.954 256.8C501.954 268.4 499.504 278.55 494.604 287.25C489.804 295.85 483.304 303 475.104 308.7C466.904 314.3 457.604 318.5 447.204 321.3C436.904 324.1 426.254 325.5 415.254 325.5ZM513.924 321L579.924 105H640.824L706.824 321H664.824L606.024 130.5H613.824L555.924 321H513.924ZM553.524 276V237.9H667.524V276H553.524ZM727.709 321V105H797.609C799.309 105 802.809 105.05 808.109 105.15C813.409 105.25 818.509 105.6 823.409 106.2C840.809 108.3 855.559 114.35 867.659 124.35C879.759 134.35 888.959 147.05 895.259 162.45C901.559 177.85 904.709 194.7 904.709 213C904.709 231.3 901.559 248.15 895.259 263.55C888.959 278.95 879.759 291.65 867.659 301.65C855.559 311.65 840.809 317.7 823.409 319.8C818.509 320.4 813.409 320.75 808.109 320.85C802.809 320.95 799.309 321 797.609 321H727.709ZM769.109 282.6H797.609C800.309 282.6 803.959 282.55 808.559 282.45C813.159 282.25 817.309 281.8 821.009 281.1C830.409 279.2 838.059 274.8 843.959 267.9C849.959 261 854.359 252.7 857.159 243C860.059 233.3 861.509 223.3 861.509 213C861.509 202.2 860.009 191.95 857.009 182.25C854.109 172.55 849.659 164.35 843.659 157.65C837.659 150.95 830.109 146.7 821.009 144.9C817.309 144.1 813.159 143.65 808.559 143.55C803.959 143.45 800.309 143.4 797.609 143.4H769.109V282.6ZM1027.4 325.5C1005.8 325.5 987.147 320.8 971.447 311.4C955.847 302 943.797 288.85 935.297 271.95C926.897 255.05 922.697 235.4 922.697 213C922.697 190.6 926.897 170.95 935.297 154.05C943.797 137.15 955.847 124 971.447 114.6C987.147 105.2 1005.8 100.5 1027.4 100.5C1049 100.5 1067.6 105.2 1083.2 114.6C1098.9 124 1110.95 137.15 1119.35 154.05C1127.85 170.95 1132.1 190.6 1132.1 213C1132.1 235.4 1127.85 255.05 1119.35 271.95C1110.95 288.85 1098.9 302 1083.2 311.4C1067.6 320.8 1049 325.5 1027.4 325.5ZM1027.4 287.1C1041.1 287.3 1052.5 284.35 1061.6 278.25C1070.7 272.15 1077.5 263.5 1082 252.3C1086.6 241.1 1088.9 228 1088.9 213C1088.9 198 1086.6 185 1082 174C1077.5 163 1070.7 154.45 1061.6 148.35C1052.5 142.25 1041.1 139.1 1027.4 138.9C1013.7 138.7 1002.3 141.65 993.197 147.75C984.097 153.85 977.247 162.5 972.647 173.7C968.147 184.9 965.897 198 965.897 213C965.897 228 968.147 241 972.647 252C977.247 263 984.097 271.55 993.197 277.65C1002.3 283.75 1013.7 286.9 1027.4 287.1ZM1156.04 321V105H1196.84V204.6L1279.04 105H1328.84L1238.54 211.5L1334.54 321H1282.94L1196.84 222.6V321H1156.04ZM1356.15 321V280.2H1396.95V321H1356.15ZM1424.65 321L1490.65 105H1551.55L1617.55 321H1575.55L1516.75 130.5H1524.55L1466.65 321H1424.65ZM1464.25 276V237.9H1578.25V276H1464.25ZM1638.43 321V105H1708.33C1710.03 105 1713.53 105.05 1718.83 105.15C1724.13 105.25 1729.23 105.6 1734.13 106.2C1751.53 108.3 1766.28 114.35 1778.38 124.35C1790.48 134.35 1799.68 147.05 1805.98 162.45C1812.28 177.85 1815.43 194.7 1815.43 213C1815.43 231.3 1812.28 248.15 1805.98 263.55C1799.68 278.95 1790.48 291.65 1778.38 301.65C1766.28 311.65 1751.53 317.7 1734.13 319.8C1729.23 320.4 1724.13 320.75 1718.83 320.85C1713.53 320.95 1710.03 321 1708.33 321H1638.43ZM1679.83 282.6H1708.33C1711.03 282.6 1714.68 282.55 1719.28 282.45C1723.88 282.25 1728.03 281.8 1731.73 281.1C1741.13 279.2 1748.78 274.8 1754.68 267.9C1760.68 261 1765.08 252.7 1767.88 243C1770.78 233.3 1772.23 223.3 1772.23 213C1772.23 202.2 1770.73 191.95 1767.73 182.25C1764.83 172.55 1760.38 164.35 1754.38 157.65C1748.38 150.95 1740.83 146.7 1731.73 144.9C1728.03 144.1 1723.88 143.65 1719.28 143.55C1714.68 143.45 1711.03 143.4 1708.33 143.4H1679.83V282.6ZM1927.02 325.5C1911.02 325.5 1896.57 322.7 1883.67 317.1C1870.87 311.4 1860.32 303.3 1852.02 292.8C1843.82 282.2 1838.62 269.6 1836.42 255L1879.02 248.7C1882.02 261.1 1888.22 270.65 1897.62 277.35C1907.02 284.05 1917.72 287.4 1929.72 287.4C1936.42 287.4 1942.92 286.35 1949.22 284.25C1955.52 282.15 1960.67 279.05 1964.67 274.95C1968.77 270.85 1970.82 265.8 1970.82 259.8C1970.82 257.6 1970.47 255.5 1969.77 253.5C1969.17 251.4 1968.12 249.45 1966.62 247.65C1965.12 245.85 1962.97 244.15 1960.17 242.55C1957.47 240.95 1954.02 239.5 1949.82 238.2L1893.72 221.7C1889.52 220.5 1884.62 218.8 1879.02 216.6C1873.52 214.4 1868.17 211.25 1862.97 207.15C1857.77 203.05 1853.42 197.65 1849.92 190.95C1846.52 184.15 1844.82 175.6 1844.82 165.3C1844.82 150.8 1848.47 138.75 1855.77 129.15C1863.07 119.55 1872.82 112.4 1885.02 107.7C1897.22 103 1910.72 100.7 1925.52 100.8C1940.42 101 1953.72 103.55 1965.42 108.45C1977.12 113.35 1986.92 120.5 1994.82 129.9C2002.72 139.2 2008.42 150.6 2011.92 164.1L1967.82 171.6C1966.22 164.6 1963.27 158.7 1958.97 153.9C1954.67 149.1 1949.52 145.45 1943.52 142.95C1937.62 140.45 1931.42 139.1 1924.92 138.9C1918.52 138.7 1912.47 139.6 1906.77 141.6C1901.17 143.5 1896.57 146.3 1892.97 150C1889.47 153.7 1887.72 158.1 1887.72 163.2C1887.72 167.9 1889.17 171.75 1892.07 174.75C1894.97 177.65 1898.62 180 1903.02 181.8C1907.42 183.6 1911.92 185.1 1916.52 186.3L1954.02 196.5C1959.62 198 1965.82 200 1972.62 202.5C1979.42 204.9 1985.92 208.3 1992.12 212.7C1998.42 217 2003.57 222.7 2007.57 229.8C2011.67 236.9 2013.72 245.9 2013.72 256.8C2013.72 268.4 2011.27 278.55 2006.37 287.25C2001.57 295.85 1995.07 303 1986.87 308.7C1978.67 314.3 1969.37 318.5 1958.97 321.3C1948.67 324.1 1938.02 325.5 1927.02 325.5Z" fill="#EDEDED"/>
</g>
<defs>
<filter id="filter0_gf_33_1111" x="0.310547" y="0.5" width="2113.41" height="425" filterUnits="userSpaceOnUse" color-interpolation-filters="sRGB">
<feFlood flood-opacity="0" result="BackgroundImageFix"/>
<feBlend mode="normal" in="SourceGraphic" in2="BackgroundImageFix" result="shape"/>
<feTurbulence type="fractalNoise" baseFrequency="0.66666668653488159 0.66666668653488159" numOctaves="3" seed="1206" />
<feDisplacementMap in="shape" scale="23.799999237060547" xChannelSelector="R" yChannelSelector="G" result="displacedImage" width="100%" height="100%" />
<feMerge result="effect1_texture_33_1111">
<feMergeNode in="displacedImage"/>
</feMerge>
<feGaussianBlur stdDeviation="0" result="effect2_foregroundBlur_33_1111"/>
</filter>
</defs>
</svg>
