<svg width="355" height="717" viewBox="0 0 355 717" fill="none" xmlns="http://www.w3.org/2000/svg">
<path d="M43.66 10.18C43.128 10.18 42.648 10.056 42.22 9.808C41.796 9.56 41.46 9.224 41.212 8.8C40.964 8.372 40.84 7.892 40.84 7.36V4C40.84 3.468 40.964 2.99 41.212 2.566C41.46 2.138 41.796 1.8 42.22 1.552C42.648 1.304 43.128 1.18 43.66 1.18C44.192 1.18 44.67 1.304 45.094 1.552C45.522 1.8 45.86 2.138 46.108 2.566C46.356 2.99 46.48 3.468 46.48 4V7.36C46.48 7.892 46.356 8.372 46.108 8.8C45.86 9.224 45.522 9.56 45.094 9.808C44.67 10.056 44.192 10.18 43.66 10.18ZM43.66 9.328C44.016 9.328 44.34 9.242 44.632 9.07C44.924 8.894 45.156 8.66 45.328 8.368C45.5 8.076 45.586 7.754 45.586 7.402V3.958C45.586 3.602 45.5 3.278 45.328 2.986C45.156 2.694 44.924 2.462 44.632 2.29C44.34 2.114 44.016 2.026 43.66 2.026C43.304 2.026 42.98 2.114 42.688 2.29C42.396 2.462 42.164 2.694 41.992 2.986C41.82 3.278 41.734 3.602 41.734 3.958V7.402C41.734 7.754 41.82 8.076 41.992 8.368C42.164 8.66 42.396 8.894 42.688 9.07C42.98 9.242 43.304 9.328 43.66 9.328ZM49.0702 10V2.344L47.4442 3.322V2.332L49.0702 1.36H49.9642V10H49.0702Z" fill="#EDEDED"/>
<path d="M43.66 145.18C43.128 145.18 42.648 145.056 42.22 144.808C41.796 144.56 41.46 144.224 41.212 143.8C40.964 143.372 40.84 142.892 40.84 142.36V139C40.84 138.468 40.964 137.99 41.212 137.566C41.46 137.138 41.796 136.8 42.22 136.552C42.648 136.304 43.128 136.18 43.66 136.18C44.192 136.18 44.67 136.304 45.094 136.552C45.522 136.8 45.86 137.138 46.108 137.566C46.356 137.99 46.48 138.468 46.48 139V142.36C46.48 142.892 46.356 143.372 46.108 143.8C45.86 144.224 45.522 144.56 45.094 144.808C44.67 145.056 44.192 145.18 43.66 145.18ZM43.66 144.328C44.016 144.328 44.34 144.242 44.632 144.07C44.924 143.894 45.156 143.66 45.328 143.368C45.5 143.076 45.586 142.754 45.586 142.402V138.958C45.586 138.602 45.5 138.278 45.328 137.986C45.156 137.694 44.924 137.462 44.632 137.29C44.34 137.114 44.016 137.026 43.66 137.026C43.304 137.026 42.98 137.114 42.688 137.29C42.396 137.462 42.164 137.694 41.992 137.986C41.82 138.278 41.734 138.602 41.734 138.958V142.402C41.734 142.754 41.82 143.076 41.992 143.368C42.164 143.66 42.396 143.894 42.688 144.07C42.98 144.242 43.304 144.328 43.66 144.328ZM47.3242 144.994L47.3302 144.19L51.2362 140.662C51.5722 140.358 51.7942 140.07 51.9022 139.798C52.0142 139.522 52.0702 139.234 52.0702 138.934C52.0702 138.578 51.9862 138.256 51.8182 137.968C51.6502 137.68 51.4242 137.452 51.1402 137.284C50.8562 137.112 50.5382 137.026 50.1862 137.026C49.8182 137.026 49.4902 137.114 49.2022 137.29C48.9142 137.466 48.6862 137.698 48.5182 137.986C48.3542 138.274 48.2742 138.588 48.2782 138.928H47.3782C47.3782 138.404 47.5022 137.934 47.7502 137.518C47.9982 137.102 48.3342 136.776 48.7582 136.54C49.1822 136.3 49.6622 136.18 50.1982 136.18C50.7222 136.18 51.1922 136.304 51.6082 136.552C52.0282 136.796 52.3582 137.128 52.5982 137.548C52.8422 137.964 52.9642 138.428 52.9642 138.94C52.9642 139.3 52.9202 139.618 52.8322 139.894C52.7482 140.166 52.6142 140.42 52.4302 140.656C52.2502 140.888 52.0202 141.128 51.7402 141.376L48.2722 144.508L48.1342 144.148H52.9642V144.994H47.3242Z" fill="#EDEDED"/>
<path d="M43.66 286.18C43.128 286.18 42.648 286.056 42.22 285.808C41.796 285.56 41.46 285.224 41.212 284.8C40.964 284.372 40.84 283.892 40.84 283.36V280C40.84 279.468 40.964 278.99 41.212 278.566C41.46 278.138 41.796 277.8 42.22 277.552C42.648 277.304 43.128 277.18 43.66 277.18C44.192 277.18 44.67 277.304 45.094 277.552C45.522 277.8 45.86 278.138 46.108 278.566C46.356 278.99 46.48 279.468 46.48 280V283.36C46.48 283.892 46.356 284.372 46.108 284.8C45.86 285.224 45.522 285.56 45.094 285.808C44.67 286.056 44.192 286.18 43.66 286.18ZM43.66 285.328C44.016 285.328 44.34 285.242 44.632 285.07C44.924 284.894 45.156 284.66 45.328 284.368C45.5 284.076 45.586 283.754 45.586 283.402V279.958C45.586 279.602 45.5 279.278 45.328 278.986C45.156 278.694 44.924 278.462 44.632 278.29C44.34 278.114 44.016 278.026 43.66 278.026C43.304 278.026 42.98 278.114 42.688 278.29C42.396 278.462 42.164 278.694 41.992 278.986C41.82 279.278 41.734 279.602 41.734 279.958V283.402C41.734 283.754 41.82 284.076 41.992 284.368C42.164 284.66 42.396 284.894 42.688 285.07C42.98 285.242 43.304 285.328 43.66 285.328ZM49.8862 286.174C49.4582 286.174 49.0642 286.098 48.7042 285.946C48.3442 285.794 48.0342 285.578 47.7742 285.298C47.5142 285.014 47.3242 284.676 47.2042 284.284L48.0442 284.032C48.1882 284.46 48.4242 284.784 48.7522 285.004C49.0842 285.224 49.4582 285.33 49.8742 285.322C50.2582 285.314 50.5882 285.228 50.8642 285.064C51.1442 284.9 51.3582 284.672 51.5062 284.38C51.6542 284.088 51.7282 283.75 51.7282 283.366C51.7282 282.778 51.5562 282.306 51.2122 281.95C50.8722 281.59 50.4222 281.41 49.8622 281.41C49.7062 281.41 49.5422 281.432 49.3702 281.476C49.1982 281.516 49.0382 281.574 48.8902 281.65L48.4462 280.948L51.8062 277.846L51.9502 278.206H47.5462V277.36H52.5382V278.218L49.6102 281.014L49.5982 280.666C50.1982 280.59 50.7262 280.658 51.1822 280.87C51.6382 281.082 51.9942 281.406 52.2502 281.842C52.5102 282.274 52.6402 282.782 52.6402 283.366C52.6402 283.918 52.5202 284.406 52.2802 284.83C52.0442 285.25 51.7182 285.58 51.3022 285.82C50.8862 286.056 50.4142 286.174 49.8862 286.174Z" fill="#EDEDED"/>
<path d="M43.66 421.18C43.128 421.18 42.648 421.056 42.22 420.808C41.796 420.56 41.46 420.224 41.212 419.8C40.964 419.372 40.84 418.892 40.84 418.36V415C40.84 414.468 40.964 413.99 41.212 413.566C41.46 413.138 41.796 412.8 42.22 412.552C42.648 412.304 43.128 412.18 43.66 412.18C44.192 412.18 44.67 412.304 45.094 412.552C45.522 412.8 45.86 413.138 46.108 413.566C46.356 413.99 46.48 414.468 46.48 415V418.36C46.48 418.892 46.356 419.372 46.108 419.8C45.86 420.224 45.522 420.56 45.094 420.808C44.67 421.056 44.192 421.18 43.66 421.18ZM43.66 420.328C44.016 420.328 44.34 420.242 44.632 420.07C44.924 419.894 45.156 419.66 45.328 419.368C45.5 419.076 45.586 418.754 45.586 418.402V414.958C45.586 414.602 45.5 414.278 45.328 413.986C45.156 413.694 44.924 413.462 44.632 413.29C44.34 413.114 44.016 413.026 43.66 413.026C43.304 413.026 42.98 413.114 42.688 413.29C42.396 413.462 42.164 413.694 41.992 413.986C41.82 414.278 41.734 414.602 41.734 414.958V418.402C41.734 418.754 41.82 419.076 41.992 419.368C42.164 419.66 42.396 419.894 42.688 420.07C42.98 420.242 43.304 420.328 43.66 420.328ZM51.3682 421V419.326H47.3242V418.486L50.2162 412.36H51.2062L48.3142 418.486H51.3682V415.966H52.2562V418.486H53.1982V419.326H52.2562V421H51.3682Z" fill="#EDEDED"/>
<line x1="-14" y1="18.5" x2="355" y2="18.5" stroke="#EDEDED"/>
<line x1="354.5" y1="574" x2="354.5" y2="714" stroke="#EDEDED"/>
<line x1="355" y1="713.5" y2="713.5" stroke="#EDEDED"/>
<line x1="20" y1="157.5" x2="355" y2="157.5" stroke="#EDEDED"/>
<line x1="354.5" y1="158" x2="354.5" y2="19" stroke="#EDEDED"/>
<line x1="19.5" y1="297" x2="19.5" y2="157" stroke="#EDEDED"/>
<line x1="354.5" y1="436" x2="354.5" y2="297" stroke="#EDEDED"/>
<line x1="19.5" y1="575" x2="19.5" y2="435" stroke="#EDEDED"/>
<line x1="20" y1="296.5" x2="355" y2="296.5" stroke="#EDEDED"/>
<line x1="20" y1="435.5" x2="355" y2="435.5" stroke="#EDEDED"/>
<line x1="20" y1="574.5" x2="355" y2="574.5" stroke="#EDEDED"/>
<path d="M46.0415 18.5C46.0415 20.1569 44.6983 21.5 43.0415 21.5C41.3846 21.5 40.0415 20.1569 40.0415 18.5C40.0415 16.8431 41.3846 15.5 43.0415 15.5C44.6983 15.5 46.0415 16.8431 46.0415 18.5Z" fill="#EDEDED"/>
<path d="M45.9584 157.5C45.9584 159.157 44.6152 160.5 42.9584 160.5C41.3015 160.5 39.9584 159.157 39.9584 157.5C39.9584 155.843 41.3015 154.5 42.9584 154.5C44.6152 154.5 45.9584 155.843 45.9584 157.5Z" fill="#EDEDED"/>
<path d="M46.0415 296.5C46.0415 298.157 44.6983 299.5 43.0415 299.5C41.3846 299.5 40.0415 298.157 40.0415 296.5C40.0415 294.843 41.3846 293.5 43.0415 293.5C44.6983 293.5 46.0415 294.843 46.0415 296.5Z" fill="#EDEDED"/>
<path d="M46.0415 435.5C46.0415 437.157 44.6984 438.5 43.0415 438.5C41.3847 438.5 40.0415 437.157 40.0415 435.5C40.0415 433.843 41.3847 432.5 43.0415 432.5C44.6984 432.5 46.0415 433.843 46.0415 435.5Z" fill="#EDEDED"/>
<path d="M46.0414 574.5C46.0414 576.157 44.6982 577.5 43.0414 577.5C41.3845 577.5 40.0414 576.157 40.0414 574.5C40.0414 572.843 41.3845 571.5 43.0414 571.5C44.6982 571.5 46.0414 572.843 46.0414 574.5Z" fill="#EDEDED"/>
<path d="M45.9999 713.5C45.9999 715.157 44.6568 716.5 42.9999 716.5C41.3431 716.5 39.9999 715.157 39.9999 713.5C39.9999 711.843 41.3431 710.5 42.9999 710.5C44.6568 710.5 45.9999 711.843 45.9999 713.5Z" fill="#EDEDED"/>
<path d="M43.66 560.18C43.128 560.18 42.648 560.056 42.22 559.808C41.796 559.56 41.46 559.224 41.212 558.8C40.964 558.372 40.84 557.892 40.84 557.36V554C40.84 553.468 40.964 552.99 41.212 552.566C41.46 552.138 41.796 551.8 42.22 551.552C42.648 551.304 43.128 551.18 43.66 551.18C44.192 551.18 44.67 551.304 45.094 551.552C45.522 551.8 45.86 552.138 46.108 552.566C46.356 552.99 46.48 553.468 46.48 554V557.36C46.48 557.892 46.356 558.372 46.108 558.8C45.86 559.224 45.522 559.56 45.094 559.808C44.67 560.056 44.192 560.18 43.66 560.18ZM43.66 559.328C44.016 559.328 44.34 559.242 44.632 559.07C44.924 558.894 45.156 558.66 45.328 558.368C45.5 558.076 45.586 557.754 45.586 557.402V553.958C45.586 553.602 45.5 553.278 45.328 552.986C45.156 552.694 44.924 552.462 44.632 552.29C44.34 552.114 44.016 552.026 43.66 552.026C43.304 552.026 42.98 552.114 42.688 552.29C42.396 552.462 42.164 552.694 41.992 552.986C41.82 553.278 41.734 553.602 41.734 553.958V557.402C41.734 557.754 41.82 558.076 41.992 558.368C42.164 558.66 42.396 558.894 42.688 559.07C42.98 559.242 43.304 559.328 43.66 559.328ZM50.1142 560.18C49.6662 560.18 49.2522 560.088 48.8722 559.904C48.4922 559.72 48.1682 559.466 47.9002 559.142C47.6322 558.818 47.4402 558.446 47.3242 558.026L48.1702 557.798C48.2462 558.11 48.3842 558.38 48.5842 558.608C48.7842 558.832 49.0182 559.006 49.2862 559.13C49.5582 559.254 49.8422 559.316 50.1382 559.316C50.5222 559.316 50.8662 559.224 51.1702 559.04C51.4782 558.852 51.7222 558.604 51.9022 558.296C52.0822 557.988 52.1722 557.65 52.1722 557.282C52.1722 556.902 52.0782 556.56 51.8902 556.256C51.7022 555.948 51.4542 555.704 51.1462 555.524C50.8382 555.344 50.5022 555.254 50.1382 555.254C49.7302 555.254 49.3782 555.344 49.0822 555.524C48.7862 555.7 48.5502 555.922 48.3742 556.19L47.5702 555.854L47.8342 551.36H52.4482V552.206H48.2242L48.6622 551.792L48.4282 555.626L48.2062 555.332C48.4542 555.048 48.7542 554.826 49.1062 554.666C49.4582 554.506 49.8282 554.426 50.2162 554.426C50.7482 554.426 51.2282 554.554 51.6562 554.81C52.0842 555.062 52.4242 555.404 52.6762 555.836C52.9282 556.268 53.0542 556.75 53.0542 557.282C53.0542 557.81 52.9202 558.294 52.6522 558.734C52.3842 559.17 52.0282 559.52 51.5842 559.784C51.1402 560.048 50.6502 560.18 50.1142 560.18Z" fill="#EDEDED"/>
<path d="M43.66 699.18C43.128 699.18 42.648 699.056 42.22 698.808C41.796 698.56 41.46 698.224 41.212 697.8C40.964 697.372 40.84 696.892 40.84 696.36V693C40.84 692.468 40.964 691.99 41.212 691.566C41.46 691.138 41.796 690.8 42.22 690.552C42.648 690.304 43.128 690.18 43.66 690.18C44.192 690.18 44.67 690.304 45.094 690.552C45.522 690.8 45.86 691.138 46.108 691.566C46.356 691.99 46.48 692.468 46.48 693V696.36C46.48 696.892 46.356 697.372 46.108 697.8C45.86 698.224 45.522 698.56 45.094 698.808C44.67 699.056 44.192 699.18 43.66 699.18ZM43.66 698.328C44.016 698.328 44.34 698.242 44.632 698.07C44.924 697.894 45.156 697.66 45.328 697.368C45.5 697.076 45.586 696.754 45.586 696.402V692.958C45.586 692.602 45.5 692.278 45.328 691.986C45.156 691.694 44.924 691.462 44.632 691.29C44.34 691.114 44.016 691.026 43.66 691.026C43.304 691.026 42.98 691.114 42.688 691.29C42.396 691.462 42.164 691.694 41.992 691.986C41.82 692.278 41.734 692.602 41.734 692.958V696.402C41.734 696.754 41.82 697.076 41.992 697.368C42.164 697.66 42.396 697.894 42.688 698.07C42.98 698.242 43.304 698.328 43.66 698.328ZM50.4862 699.18C49.9462 699.18 49.4542 699.05 49.0102 698.79C48.5702 698.526 48.2182 698.17 47.9542 697.722C47.6942 697.27 47.5642 696.762 47.5642 696.198V693.204C47.5642 692.624 47.6942 692.108 47.9542 691.656C48.2142 691.2 48.5682 690.842 49.0162 690.582C49.4682 690.318 49.9802 690.186 50.5522 690.186C51.0442 690.186 51.5002 690.294 51.9202 690.51C52.3442 690.726 52.6902 691.028 52.9582 691.416L52.2802 691.974C52.0962 691.686 51.8522 691.456 51.5482 691.284C51.2442 691.112 50.9122 691.026 50.5522 691.026C50.1482 691.026 49.7882 691.124 49.4722 691.32C49.1562 691.516 48.9082 691.774 48.7282 692.094C48.5482 692.41 48.4582 692.754 48.4582 693.126V695.01L48.2362 694.758C48.4882 694.362 48.8182 694.042 49.2262 693.798C49.6382 693.554 50.0862 693.432 50.5702 693.432C51.1062 693.432 51.5882 693.56 52.0162 693.816C52.4442 694.068 52.7842 694.41 53.0362 694.842C53.2882 695.274 53.4142 695.758 53.4142 696.294C53.4142 696.826 53.2802 697.31 53.0122 697.746C52.7482 698.182 52.3942 698.53 51.9502 698.79C51.5102 699.05 51.0222 699.18 50.4862 699.18ZM50.4862 698.322C50.8622 698.322 51.2042 698.232 51.5122 698.052C51.8242 697.872 52.0702 697.628 52.2502 697.32C52.4342 697.012 52.5262 696.67 52.5262 696.294C52.5262 695.918 52.4342 695.576 52.2502 695.268C52.0702 694.956 51.8262 694.71 51.5182 694.53C51.2102 694.346 50.8682 694.254 50.4922 694.254C50.1162 694.254 49.7742 694.346 49.4662 694.53C49.1582 694.71 48.9122 694.956 48.7282 695.268C48.5482 695.576 48.4582 695.918 48.4582 696.294C48.4582 696.666 48.5482 697.006 48.7282 697.314C48.9082 697.622 49.1522 697.868 49.4602 698.052C49.7682 698.232 50.1102 698.322 50.4862 698.322Z" fill="#EDEDED"/>
</svg>
