<svg width="1920" height="316" viewBox="0 0 1920 316" fill="none" xmlns="http://www.w3.org/2000/svg">
<g filter="url(#filter0_gf_33_1111)">
<path d="M106.011 325.5C84.4106 325.5 65.7606 320.8 50.0605 311.4C34.4605 302 22.4105 288.85 13.9105 271.95C5.51055 255.05 1.31055 235.4 1.31055 213C1.31055 190.6 5.51055 170.95 13.9105 154.05C22.4105 137.15 34.4605 124 50.0605 114.6C65.7606 105.2 84.4106 100.5 106.011 100.5C127.611 100.5 146.211 105.2 161.811 114.6C177.511 124 189.561 137.15 197.961 154.05C206.461 170.95 210.711 190.6 210.711 213C210.711 235.4 206.461 255.05 197.961 271.95C189.561 288.85 177.511 302 161.811 311.4C146.211 320.8 127.611 325.5 106.011 325.5ZM106.011 287.1C119.711 287.3 131.111 284.35 140.211 278.25C149.311 272.15 156.111 263.5 160.611 252.3C165.211 241.1 167.511 228 167.511 213C167.511 198 165.211 185 160.611 174C156.111 163 149.311 154.45 140.211 148.35C131.111 142.25 119.711 139.1 106.011 138.9C92.3106 138.7 80.9106 141.65 71.8106 147.75C62.7105 153.85 55.8605 162.5 51.2605 173.7C46.7605 184.9 44.5105 198 44.5105 213C44.5105 228 46.7605 241 51.2605 252C55.8605 263 62.7105 271.55 71.8106 277.65C80.9106 283.75 92.3106 286.9 106.011 287.1ZM316.254 325.5C300.254 325.5 285.804 322.7 272.904 317.1C260.104 311.4 249.554 303.3 241.254 292.8C233.054 282.2 227.854 269.6 225.654 255L268.254 248.7C271.254 261.1 277.454 270.65 286.854 277.35C296.254 284.05 306.954 287.4 318.954 287.4C325.654 287.4 332.154 286.35 338.454 284.25C344.754 282.15 349.904 279.05 353.904 274.95C358.004 270.85 360.054 265.8 360.054 259.8C360.054 257.6 359.704 255.5 359.004 253.5C358.404 251.4 357.354 249.45 355.854 247.65C354.354 245.85 352.204 244.15 349.404 242.55C346.704 240.95 343.254 239.5 339.054 238.2L282.954 221.7C278.754 220.5 273.854 218.8 268.254 216.6C262.754 214.4 257.404 211.25 252.204 207.15C247.004 203.05 242.654 197.65 239.154 190.95C235.754 184.15 234.054 175.6 234.054 165.3C234.054 150.8 237.704 138.75 245.004 129.15C252.304 119.55 262.054 112.4 274.254 107.7C286.454 103 299.954 100.7 314.754 100.8C329.654 101 342.954 103.55 354.654 108.45C366.354 113.35 376.154 120.5 384.054 129.9C391.954 139.2 397.654 150.6 401.154 164.1L357.054 171.6C355.454 164.6 352.504 158.7 348.204 153.9C343.904 149.1 338.754 145.45 332.754 142.95C326.854 140.45 320.654 139.1 314.154 138.9C307.754 138.7 301.704 139.6 296.004 141.6C290.404 143.5 285.804 146.3 282.204 150C278.704 153.7 276.954 158.1 276.954 163.2C276.954 167.9 278.404 171.75 281.304 174.75C284.204 177.65 287.854 180 292.254 181.8C296.654 183.6 301.154 185.1 305.754 186.3L343.254 196.5C348.854 198 355.054 200 361.854 202.5C368.654 204.9 375.154 208.3 381.354 212.7C387.654 217 392.804 222.7 396.804 229.8C400.904 236.9 402.954 245.9 402.954 256.8C402.954 268.4 400.504 278.55 395.604 287.25C390.804 295.85 384.304 303 376.104 308.7C367.904 314.3 358.604 318.5 348.204 321.3C337.904 324.1 327.254 325.5 316.254 325.5ZM414.924 321L480.924 105H541.824L607.824 321H565.824L507.024 130.5H514.824L456.924 321H414.924ZM454.524 276V237.9H568.524V276H454.524ZM628.709 321V105H698.609C700.309 105 703.809 105.05 709.109 105.15C714.409 105.25 719.509 105.6 724.409 106.2C741.809 108.3 756.559 114.35 768.659 124.35C780.759 134.35 789.959 147.05 796.259 162.45C802.559 177.85 805.709 194.7 805.709 213C805.709 231.3 802.559 248.15 796.259 263.55C789.959 278.95 780.759 291.65 768.659 301.65C756.559 311.65 741.809 317.7 724.409 319.8C719.509 320.4 714.409 320.75 709.109 320.85C703.809 320.95 700.309 321 698.609 321H628.709ZM670.109 282.6H698.609C701.309 282.6 704.959 282.55 709.559 282.45C714.159 282.25 718.309 281.8 722.009 281.1C731.409 279.2 739.059 274.8 744.959 267.9C750.959 261 755.359 252.7 758.159 243C761.059 233.3 762.509 223.3 762.509 213C762.509 202.2 761.009 191.95 758.009 182.25C755.109 172.55 750.659 164.35 744.659 157.65C738.659 150.95 731.109 146.7 722.009 144.9C718.309 144.1 714.159 143.65 709.559 143.55C704.959 143.45 701.309 143.4 698.609 143.4H670.109V282.6ZM928.397 325.5C906.797 325.5 888.147 320.8 872.447 311.4C856.847 302 844.797 288.85 836.297 271.95C827.897 255.05 823.697 235.4 823.697 213C823.697 190.6 827.897 170.95 836.297 154.05C844.797 137.15 856.847 124 872.447 114.6C888.147 105.2 906.797 100.5 928.397 100.5C949.997 100.5 968.597 105.2 984.197 114.6C999.897 124 1011.95 137.15 1020.35 154.05C1028.85 170.95 1033.1 190.6 1033.1 213C1033.1 235.4 1028.85 255.05 1020.35 271.95C1011.95 288.85 999.897 302 984.197 311.4C968.597 320.8 949.997 325.5 928.397 325.5ZM928.397 287.1C942.097 287.3 953.497 284.35 962.597 278.25C971.697 272.15 978.497 263.5 982.997 252.3C987.597 241.1 989.897 228 989.897 213C989.897 198 987.597 185 982.997 174C978.497 163 971.697 154.45 962.597 148.35C953.497 142.25 942.097 139.1 928.397 138.9C914.697 138.7 903.297 141.65 894.197 147.75C885.097 153.85 878.247 162.5 873.647 173.7C869.147 184.9 866.897 198 866.897 213C866.897 228 869.147 241 873.647 252C878.247 263 885.097 271.55 894.197 277.65C903.297 283.75 914.697 286.9 928.397 287.1ZM1057.04 321V105H1097.84V204.6L1180.04 105H1229.84L1139.54 211.5L1235.54 321H1183.94L1097.84 222.6V321H1057.04ZM1257.15 321V280.2H1297.95V321H1257.15ZM1325.65 321L1391.65 105H1452.55L1518.55 321H1476.55L1417.75 130.5H1425.55L1367.65 321H1325.65ZM1365.25 276V237.9H1479.25V276H1365.25ZM1539.43 321V105H1609.33C1611.03 105 1614.53 105.05 1619.83 105.15C1625.13 105.25 1630.23 105.6 1635.13 106.2C1652.53 108.3 1667.28 114.35 1679.38 124.35C1691.48 134.35 1700.68 147.05 1706.98 162.45C1713.28 177.85 1716.43 194.7 1716.43 213C1716.43 231.3 1713.28 248.15 1706.98 263.55C1700.68 278.95 1691.48 291.65 1679.38 301.65C1667.28 311.65 1652.53 317.7 1635.13 319.8C1630.23 320.4 1625.13 320.75 1619.83 320.85C1614.53 320.95 1611.03 321 1609.33 321H1539.43ZM1580.83 282.6H1609.33C1612.03 282.6 1615.68 282.55 1620.28 282.45C1624.88 282.25 1629.03 281.8 1632.73 281.1C1642.13 279.2 1649.78 274.8 1655.68 267.9C1661.68 261 1666.08 252.7 1668.88 243C1671.78 233.3 1673.23 223.3 1673.23 213C1673.23 202.2 1671.73 191.95 1668.73 182.25C1665.83 172.55 1661.38 164.35 1655.38 157.65C1649.38 150.95 1641.83 146.7 1632.73 144.9C1629.03 144.1 1624.88 143.65 1620.28 143.55C1615.68 143.45 1612.03 143.4 1609.33 143.4H1580.83V282.6ZM1828.02 325.5C1812.02 325.5 1797.57 322.7 1784.67 317.1C1771.87 311.4 1761.32 303.3 1753.02 292.8C1744.82 282.2 1739.62 269.6 1737.42 255L1780.02 248.7C1783.02 261.1 1789.22 270.65 1798.62 277.35C1808.02 284.05 1818.72 287.4 1830.72 287.4C1837.42 287.4 1843.92 286.35 1850.22 284.25C1856.52 282.15 1861.67 279.05 1865.67 274.95C1869.77 270.85 1871.82 265.8 1871.82 259.8C1871.82 257.6 1871.47 255.5 1870.77 253.5C1870.17 251.4 1869.12 249.45 1867.62 247.65C1866.12 245.85 1863.97 244.15 1861.17 242.55C1858.47 240.95 1855.02 239.5 1850.82 238.2L1794.72 221.7C1790.52 220.5 1785.62 218.8 1780.02 216.6C1774.52 214.4 1769.17 211.25 1763.97 207.15C1758.77 203.05 1754.42 197.65 1750.92 190.95C1747.52 184.15 1745.82 175.6 1745.82 165.3C1745.82 150.8 1749.47 138.75 1756.77 129.15C1764.07 119.55 1773.82 112.4 1786.02 107.7C1798.22 103 1811.72 100.7 1826.52 100.8C1841.42 101 1854.72 103.55 1866.42 108.45C1878.12 113.35 1887.92 120.5 1895.82 129.9C1903.72 139.2 1909.42 150.6 1912.92 164.1L1868.82 171.6C1867.22 164.6 1864.27 158.7 1859.97 153.9C1855.67 149.1 1850.52 145.45 1844.52 142.95C1838.62 140.45 1832.42 139.1 1825.92 138.9C1819.52 138.7 1813.47 139.6 1807.77 141.6C1802.17 143.5 1797.57 146.3 1793.97 150C1790.47 153.7 1788.72 158.1 1788.72 163.2C1788.72 167.9 1790.17 171.75 1793.07 174.75C1795.97 177.65 1799.62 180 1804.02 181.8C1808.42 183.6 1812.92 185.1 1817.52 186.3L1855.02 196.5C1860.62 198 1866.82 200 1873.62 202.5C1880.42 204.9 1886.92 208.3 1893.12 212.7C1899.42 217 1904.57 222.7 1908.57 229.8C1912.67 236.9 1914.72 245.9 1914.72 256.8C1914.72 268.4 1912.27 278.55 1907.37 287.25C1902.57 295.85 1896.07 303 1887.87 308.7C1879.67 314.3 1870.37 318.5 1859.97 321.3C1849.67 324.1 1839.02 325.5 1828.02 325.5Z" fill="#EDEDED"/>
</g>
<defs>
<filter id="filter0_gf_33_1111" x="-98.6895" y="0.5" width="2113.41" height="425" filterUnits="userSpaceOnUse" color-interpolation-filters="sRGB">
<feFlood flood-opacity="0" result="BackgroundImageFix"/>
<feBlend mode="normal" in="SourceGraphic" in2="BackgroundImageFix" result="shape"/>
<feTurbulence type="fractalNoise" baseFrequency="0.66666668653488159 0.66666668653488159" numOctaves="3" seed="1206" />
<feDisplacementMap in="shape" scale="23.799999237060547" xChannelSelector="R" yChannelSelector="G" result="displacedImage" width="100%" height="100%" />
<feMerge result="effect1_texture_33_1111">
<feMergeNode in="displacedImage"/>
</feMerge>
<feGaussianBlur stdDeviation="0" result="effect2_foregroundBlur_33_1111"/>
</filter>
</defs>
</svg>
